<svg width="24" height="26" viewBox="0 0 24 26" fill="none" xmlns="http://www.w3.org/2000/svg">
<path id="Vector" d="M23.623 11.1728L21.8639 11.6754L20.356 10.7958V8.65972L21.8639 7.78014L23.623 8.28275L24 6.90055L22.6178 6.52359L22.9948 5.14139L21.6126 4.76443L21.1099 6.52359L19.6021 7.40317L17.7173 6.27228V4.63877L18.9738 3.38223L17.9686 2.37699L16.9634 3.38223L15.9581 2.37699L14.9529 3.38223L16.2094 4.63877V6.27228L14.3246 7.40317L12.8168 6.52359L12.4398 4.76443L11.0576 5.14139L11.4346 6.52359L10.0524 6.7749L10.4293 8.1571L12.1885 7.65448L13.6963 8.53406V10.6702L12.1885 11.5498L10.4293 11.0472L10.0524 12.6807L11.4346 13.0576L11.0576 14.3142L12.4398 14.6911L12.9424 12.932L14.4503 12.0524L16.3351 13.1833V14.8168L15.0785 16.0733L16.0838 17.0786L17.089 16.0733L18.0942 17.0786L19.0995 16.0733L17.8429 14.8168V13.1833L19.7277 12.0524L21.2356 12.932L21.7382 14.6911L23.1204 14.3142L22.6178 12.932L24 12.555L23.623 11.1728ZM15.0785 8.65972L16.9634 7.52883L18.8482 8.65972V10.7958L16.9634 11.9267L15.0785 10.7958V8.65972ZM3.76963 20.9739C3.76963 20.9739 0 10.9215 0 5.89532C0 0.869141 2.51309 0.869141 2.51309 0.869141H3.76963C3.76963 0.869141 5.02618 0.869141 5.02618 2.12569C5.02618 3.38223 3.76963 3.38223 3.76963 5.89532C3.76963 8.40841 7.53927 10.9215 7.53927 14.6911C7.53927 18.4608 3.76963 20.9739 3.76963 20.9739ZM16.3351 19.7173C17.7173 19.7173 18.8482 20.8482 18.8482 22.2304V23.4869C18.8482 24.8691 17.7173 26 16.3351 26H8.79581C6.28272 26 5.02618 23.7383 5.02618 23.7383C4.77487 23.4869 4.64921 22.9843 5.02618 22.733C5.02618 22.733 8.79581 19.5917 10.0524 19.5917H16.3351V19.7173Z" fill="black"/>
</svg>
