<svg width="18" height="18" viewBox="0 0 18 18" fill="none" xmlns="http://www.w3.org/2000/svg">
<g id="bxs:gas-pump">
<path id="Vector" d="M16.712 4.86L16.7225 4.84725L13.7225 2.41725L12.7775 3.58275L14.3278 4.83825C13.9432 5.07194 13.6378 5.41594 13.4514 5.8255C13.2649 6.23506 13.206 6.69125 13.2823 7.13475C13.3948 7.809 13.859 8.39175 14.4598 8.718C15.131 9.08325 15.7197 9.0495 16.2432 8.8635L16.232 13.5C16.2329 13.6242 16.2028 13.7466 16.1445 13.8563C16.0862 13.9659 16.0014 14.0593 15.8979 14.1279C15.7944 14.1966 15.6755 14.2384 15.5518 14.2495C15.4281 14.2606 15.3036 14.2406 15.1895 14.1915C15.1002 14.1533 15.0191 14.098 14.951 14.0287C14.8817 13.9593 14.8267 13.8768 14.7893 13.7861C14.7518 13.6954 14.7326 13.5982 14.7327 13.5L14.75 12C14.7508 11.7048 14.693 11.4123 14.5801 11.1396C14.4672 10.8668 14.3014 10.6191 14.0922 10.4107C13.8833 10.2014 13.6351 10.0352 13.3619 9.92183C13.0887 9.80845 12.7958 9.75006 12.5 9.75H11.75V3.75C11.75 3.35218 11.592 2.97064 11.3107 2.68934C11.0294 2.40804 10.6478 2.25 10.25 2.25H5C4.60218 2.25 4.22064 2.40804 3.93934 2.68934C3.65804 2.97064 3.5 3.35218 3.5 3.75V14.25C3.5 14.6478 3.65804 15.0294 3.93934 15.3107C4.22064 15.592 4.60218 15.75 5 15.75H10.25C10.6478 15.75 11.0294 15.592 11.3107 15.3107C11.592 15.0294 11.75 14.6478 11.75 14.25V11.25H12.5C12.602 11.25 12.7002 11.2703 12.7933 11.3085C12.9717 11.3866 13.114 11.5295 13.1915 11.7083C13.2304 11.8006 13.2503 11.8998 13.25 12L13.232 13.5C13.232 13.8045 13.2913 14.0992 13.409 14.376C13.5223 14.6452 13.685 14.886 13.8897 15.0892C14.0979 15.2997 14.346 15.4665 14.6194 15.5799C14.8928 15.6934 15.186 15.7512 15.482 15.75C15.7865 15.75 16.0805 15.6915 16.358 15.573C16.6265 15.4605 16.868 15.2977 17.0712 15.0922C17.2812 14.8837 17.4477 14.6356 17.5611 14.3623C17.6746 14.089 17.7326 13.7959 17.732 13.5L17.75 6.75C17.7493 6.37322 17.6538 6.00266 17.4724 5.67241C17.291 5.34215 17.0296 5.06279 16.712 4.86ZM10.25 6H5V3.75H10.25V6ZM15.5 7.5C15.3011 7.5 15.1103 7.42098 14.9697 7.28033C14.829 7.13968 14.75 6.94891 14.75 6.75C14.75 6.55109 14.829 6.36032 14.9697 6.21967C15.1103 6.07902 15.3011 6 15.5 6C15.6989 6 15.8897 6.07902 16.0303 6.21967C16.171 6.36032 16.25 6.55109 16.25 6.75C16.25 6.94891 16.171 7.13968 16.0303 7.28033C15.8897 7.42098 15.6989 7.5 15.5 7.5Z" fill="#787878"/>
</g>
</svg>
