<svg width="30" height="27" viewBox="0 0 30 27" fill="none" xmlns="http://www.w3.org/2000/svg">
<path id="Vector" d="M13.5938 3.65541C11.3398 3.91098 9.20203 4.7909 7.42125 6.19603L8.9625 7.73916C9.2109 8.00574 9.34613 8.35833 9.3397 8.72264C9.33327 9.08695 9.18569 9.43455 8.92804 9.6922C8.67039 9.94985 8.32279 10.0974 7.95848 10.1039C7.59417 10.1103 7.24158 9.97506 6.975 9.72666L5.42625 8.17978C4.10996 9.83082 3.25353 11.8005 2.94375 13.8892H6.09375C6.46671 13.8892 6.8244 14.0373 7.08812 14.301C7.35184 14.5648 7.5 14.9224 7.5 15.2954C7.5 15.6684 7.35184 16.0261 7.08812 16.2898C6.8244 16.5535 6.46671 16.7017 6.09375 16.7017H2.85938C3.1513 19.7108 4.52662 22.5115 6.72938 24.5823C6.99505 24.8389 7.14909 25.1898 7.15822 25.559C7.16734 25.9283 7.03081 26.2863 6.77813 26.5557C6.52545 26.8251 6.17691 26.9843 5.80783 26.9989C5.43874 27.0135 5.07874 26.8822 4.80563 26.6335C1.91813 23.9279 0 19.9379 0 15.6573C0 7.42228 6.72563 0.76416 15 0.76416C23.2744 0.76416 30 7.42041 30 15.6573C29.9963 17.7124 29.5745 19.7453 28.7603 21.6323C27.9461 23.5193 26.7564 25.2209 25.2638 26.6335C24.9906 26.8822 24.6306 27.0135 24.2615 26.9989C23.8925 26.9843 23.5439 26.8251 23.2912 26.5557C23.0386 26.2863 22.902 25.9283 22.9112 25.559C22.9203 25.1898 23.0743 24.8389 23.34 24.5823C25.5275 22.508 26.88 19.7048 27.1425 16.7017H23.9062C23.5333 16.7017 23.1756 16.5535 22.9119 16.2898C22.6482 16.0261 22.5 15.6684 22.5 15.2954C22.5 14.9224 22.6482 14.5648 22.9119 14.301C23.1756 14.0373 23.5333 13.8892 23.9062 13.8892H27.0563C26.2613 8.51541 21.8944 4.27979 16.4062 3.65541V5.92041C16.4062 6.29337 16.2581 6.65106 15.9944 6.91478C15.7306 7.1785 15.373 7.32666 15 7.32666C14.627 7.32666 14.2694 7.1785 14.0056 6.91478C13.7419 6.65106 13.5938 6.29337 13.5938 5.92041V3.65541ZM21.4669 7.90229C21.6373 7.76696 21.8494 7.69512 22.067 7.69907C22.2845 7.70302 22.4939 7.78252 22.6593 7.92394C22.8246 8.06536 22.9356 8.25989 22.9733 8.47419C23.0109 8.6885 22.9729 8.90922 22.8656 9.09854L22.6594 9.46603C21.9054 10.7975 21.1466 12.1262 20.3831 13.4523C19.7728 14.5134 19.154 15.5697 18.5269 16.621C18.2919 17.0166 18.0518 17.4091 17.8069 17.7985C17.6194 18.0929 17.4356 18.3723 17.3006 18.5298C16.8163 19.0972 16.1264 19.4489 15.3827 19.5077C14.639 19.5664 13.9024 19.3273 13.335 18.8429C12.7676 18.3586 12.4159 17.6686 12.3571 16.9249C12.2984 16.1812 12.5375 15.4447 13.0219 14.8773C13.1569 14.7198 13.4025 14.4929 13.665 14.2623C13.9462 14.0129 14.3081 13.7073 14.715 13.3642C15.5325 12.6817 16.5563 11.8454 17.5538 11.0392C18.7435 10.0767 19.9373 9.11921 21.135 8.16666L21.4669 7.90416V7.90229Z" fill="#292D32"/>
</svg>
