<svg width="16" height="16" viewBox="0 0 16 16" fill="none" xmlns="http://www.w3.org/2000/svg">
<g id="jam:gps-f">
<path id="Vector" d="M13.946 3.09L9.97733 13.81C9.72666 14.4873 9.00466 14.8353 8.36533 14.5867C8.20701 14.5239 8.06338 14.4291 7.94348 14.3082C7.82359 14.1873 7.73002 14.0429 7.66866 13.884L6.41066 10.704C6.17425 10.0936 5.70561 9.60167 5.10733 9.336L2.07933 8.01533C1.44933 7.74 1.16266 6.97666 1.438 6.31C1.50312 6.14902 1.59952 6.00256 1.72162 5.87909C1.84372 5.75562 1.98909 5.65758 2.14933 5.59066L12.36 1.424C13.0047 1.16066 13.72 1.49133 13.9567 2.16333C14.0613 2.46066 14.0573 2.79 13.9467 3.09H13.946Z" fill="#787878"/>
</g>
</svg>
